<mxfile host="app.diagrams.net" modified="2021-05-09T06:12:53.383Z" agent="5.0 (Windows NT 10.0; Win64; x64) AppleWebKit/537.36 (KHTML, like Gecko) Chrome/90.0.4430.93 Safari/537.36" etag="ToiKRT2VUyGyzKOE8ET7" version="14.6.11" type="github">
  <diagram id="prtHgNgQTEPvFCAcTncT" name="Page-1">
    <mxGraphModel dx="1422" dy="762" grid="1" gridSize="10" guides="1" tooltips="1" connect="1" arrows="1" fold="1" page="1" pageScale="1" pageWidth="827" pageHeight="1169" math="0" shadow="0">
      <root>
        <mxCell id="0" />
        <mxCell id="1" parent="0" />
        <mxCell id="4mgcw4wNBVeQnwsBd0YR-1" value="&lt;font style=&quot;font-size: 18px&quot;&gt;Start&lt;/font&gt;" style="rounded=0;whiteSpace=wrap;html=1;fillColor=#66B2FF;" parent="1" vertex="1">
          <mxGeometry x="354" y="40" width="120" height="60" as="geometry" />
        </mxCell>
        <mxCell id="4mgcw4wNBVeQnwsBd0YR-2" value="" style="endArrow=classic;html=1;exitX=0.5;exitY=1;exitDx=0;exitDy=0;" parent="1" source="4mgcw4wNBVeQnwsBd0YR-1" edge="1">
          <mxGeometry width="50" height="50" relative="1" as="geometry">
            <mxPoint x="390" y="410" as="sourcePoint" />
            <mxPoint x="414" y="140" as="targetPoint" />
          </mxGeometry>
        </mxCell>
        <mxCell id="4mgcw4wNBVeQnwsBd0YR-5" value="Init_Trie()&lt;br&gt;Init_Terminal()" style="rounded=0;whiteSpace=wrap;html=1;fillColor=#66B2FF;" parent="1" vertex="1">
          <mxGeometry x="354" y="140" width="120" height="60" as="geometry" />
        </mxCell>
        <mxCell id="4mgcw4wNBVeQnwsBd0YR-6" value="" style="endArrow=classic;html=1;exitX=0.5;exitY=1;exitDx=0;exitDy=0;entryX=0.5;entryY=0;entryDx=0;entryDy=0;" parent="1" source="4mgcw4wNBVeQnwsBd0YR-5" edge="1">
          <mxGeometry width="50" height="50" relative="1" as="geometry">
            <mxPoint x="280" y="250" as="sourcePoint" />
            <mxPoint x="414" y="230" as="targetPoint" />
          </mxGeometry>
        </mxCell>
        <mxCell id="4mgcw4wNBVeQnwsBd0YR-7" value="" style="endArrow=classic;html=1;exitX=1;exitY=0.5;exitDx=0;exitDy=0;entryX=0;entryY=0.5;entryDx=0;entryDy=0;" parent="1" source="4mgcw4wNBVeQnwsBd0YR-25" target="4mgcw4wNBVeQnwsBd0YR-10" edge="1">
          <mxGeometry width="50" height="50" relative="1" as="geometry">
            <mxPoint x="474" y="270" as="sourcePoint" />
            <mxPoint x="580" y="260" as="targetPoint" />
          </mxGeometry>
        </mxCell>
        <mxCell id="4mgcw4wNBVeQnwsBd0YR-9" value="Start()" style="text;html=1;strokeColor=none;fillColor=none;align=center;verticalAlign=middle;whiteSpace=wrap;rounded=0;" parent="1" vertex="1">
          <mxGeometry x="500" y="230" width="40" height="20" as="geometry" />
        </mxCell>
        <mxCell id="4mgcw4wNBVeQnwsBd0YR-10" value="LoadQueue()&lt;br&gt;Queue of words from the trie" style="rounded=0;whiteSpace=wrap;html=1;fillColor=#66B2FF;" parent="1" vertex="1">
          <mxGeometry x="580" y="240" width="120" height="60" as="geometry" />
        </mxCell>
        <mxCell id="4mgcw4wNBVeQnwsBd0YR-12" value="" style="endArrow=classic;startArrow=classic;html=1;entryX=0;entryY=0.5;entryDx=0;entryDy=0;" parent="1" source="4mgcw4wNBVeQnwsBd0YR-13" target="4mgcw4wNBVeQnwsBd0YR-25" edge="1">
          <mxGeometry width="50" height="50" relative="1" as="geometry">
            <mxPoint x="280" y="260" as="sourcePoint" />
            <mxPoint x="354" y="260" as="targetPoint" />
          </mxGeometry>
        </mxCell>
        <mxCell id="mxw0-0rjddaAhERH-4oH-7" style="edgeStyle=orthogonalEdgeStyle;rounded=0;orthogonalLoop=1;jettySize=auto;html=1;entryX=0;entryY=0.5;entryDx=0;entryDy=0;" edge="1" parent="1" source="4mgcw4wNBVeQnwsBd0YR-13" target="4mgcw4wNBVeQnwsBd0YR-17">
          <mxGeometry relative="1" as="geometry" />
        </mxCell>
        <mxCell id="4mgcw4wNBVeQnwsBd0YR-13" value="Show high scores&lt;br&gt;of all time" style="rounded=0;whiteSpace=wrap;html=1;fillColor=#66B2FF;" parent="1" vertex="1">
          <mxGeometry x="150" y="240" width="120" height="60" as="geometry" />
        </mxCell>
        <mxCell id="4mgcw4wNBVeQnwsBd0YR-14" value="Switch_Screen(F2)&lt;br&gt;" style="text;html=1;strokeColor=none;fillColor=none;align=center;verticalAlign=middle;whiteSpace=wrap;rounded=0;" parent="1" vertex="1">
          <mxGeometry x="314" y="230" width="40" height="20" as="geometry" />
        </mxCell>
        <mxCell id="4mgcw4wNBVeQnwsBd0YR-17" value="Display current score and&lt;br&gt;Terminate the program" style="rounded=0;whiteSpace=wrap;html=1;fillColor=#66B2FF;" parent="1" vertex="1">
          <mxGeometry x="330" y="555" width="120" height="60" as="geometry" />
        </mxCell>
        <mxCell id="4mgcw4wNBVeQnwsBd0YR-19" style="edgeStyle=orthogonalEdgeStyle;rounded=0;orthogonalLoop=1;jettySize=auto;html=1;entryX=0.5;entryY=0;entryDx=0;entryDy=0;" parent="1" edge="1">
          <mxGeometry relative="1" as="geometry">
            <mxPoint x="410" y="320" as="sourcePoint" />
            <mxPoint x="410" y="320" as="targetPoint" />
          </mxGeometry>
        </mxCell>
        <mxCell id="4mgcw4wNBVeQnwsBd0YR-22" value="" style="endArrow=classic;html=1;exitX=0.5;exitY=1;exitDx=0;exitDy=0;" parent="1" source="4mgcw4wNBVeQnwsBd0YR-10" edge="1">
          <mxGeometry width="50" height="50" relative="1" as="geometry">
            <mxPoint x="620" y="380" as="sourcePoint" />
            <mxPoint x="640" y="360" as="targetPoint" />
          </mxGeometry>
        </mxCell>
        <mxCell id="mxw0-0rjddaAhERH-4oH-14" style="edgeStyle=orthogonalEdgeStyle;rounded=0;orthogonalLoop=1;jettySize=auto;html=1;entryX=0.5;entryY=0;entryDx=0;entryDy=0;" edge="1" parent="1" source="4mgcw4wNBVeQnwsBd0YR-24" target="mxw0-0rjddaAhERH-4oH-2">
          <mxGeometry relative="1" as="geometry" />
        </mxCell>
        <mxCell id="4mgcw4wNBVeQnwsBd0YR-24" value="Take_Input()" style="rounded=0;whiteSpace=wrap;html=1;fillColor=#66B2FF;" parent="1" vertex="1">
          <mxGeometry x="580" y="360" width="120" height="60" as="geometry" />
        </mxCell>
        <mxCell id="mxw0-0rjddaAhERH-4oH-8" style="edgeStyle=orthogonalEdgeStyle;rounded=0;orthogonalLoop=1;jettySize=auto;html=1;exitX=0.5;exitY=1;exitDx=0;exitDy=0;entryX=0.5;entryY=0;entryDx=0;entryDy=0;" edge="1" parent="1" source="4mgcw4wNBVeQnwsBd0YR-25" target="4mgcw4wNBVeQnwsBd0YR-17">
          <mxGeometry relative="1" as="geometry" />
        </mxCell>
        <mxCell id="4mgcw4wNBVeQnwsBd0YR-25" value="&lt;span&gt;Main Loop&lt;/span&gt;" style="rhombus;whiteSpace=wrap;html=1;fillColor=#d5e8d4;strokeColor=#82b366;" parent="1" vertex="1">
          <mxGeometry x="359" y="230" width="111" height="80" as="geometry" />
        </mxCell>
        <mxCell id="4mgcw4wNBVeQnwsBd0YR-27" value="" style="endArrow=classic;html=1;exitX=1;exitY=0.75;exitDx=0;exitDy=0;entryX=1;entryY=0.25;entryDx=0;entryDy=0;" parent="1" source="4mgcw4wNBVeQnwsBd0YR-24" target="4mgcw4wNBVeQnwsBd0YR-24" edge="1">
          <mxGeometry width="50" height="50" relative="1" as="geometry">
            <mxPoint x="760" y="520" as="sourcePoint" />
            <mxPoint x="760" y="340" as="targetPoint" />
            <Array as="points">
              <mxPoint x="760" y="405" />
              <mxPoint x="760" y="375" />
            </Array>
          </mxGeometry>
        </mxCell>
        <mxCell id="4mgcw4wNBVeQnwsBd0YR-28" value="&lt;span&gt;Display_Text()&lt;/span&gt;" style="text;html=1;align=center;verticalAlign=middle;resizable=0;points=[];autosize=1;" parent="1" vertex="1">
          <mxGeometry x="715" y="350" width="90" height="20" as="geometry" />
        </mxCell>
        <mxCell id="4mgcw4wNBVeQnwsBd0YR-30" value="Display_High_Scores()" style="text;html=1;strokeColor=none;fillColor=none;align=center;verticalAlign=middle;whiteSpace=wrap;rounded=0;" parent="1" vertex="1">
          <mxGeometry x="690" y="430" width="40" height="20" as="geometry" />
        </mxCell>
        <mxCell id="4mgcw4wNBVeQnwsBd0YR-35" value="Switch_Screen(F4)" style="text;html=1;strokeColor=none;fillColor=none;align=center;verticalAlign=middle;whiteSpace=wrap;rounded=0;" parent="1" vertex="1">
          <mxGeometry x="335" y="370" width="40" height="20" as="geometry" />
        </mxCell>
        <mxCell id="4mgcw4wNBVeQnwsBd0YR-37" value="UpdateHigh()" style="text;html=1;align=center;verticalAlign=middle;resizable=0;points=[];autosize=1;" parent="1" vertex="1">
          <mxGeometry x="100" y="575" width="90" height="20" as="geometry" />
        </mxCell>
        <mxCell id="4mgcw4wNBVeQnwsBd0YR-38" value="Ask user for username entry&lt;br&gt;and upgrade statistics" style="whiteSpace=wrap;html=1;fillColor=#66B2FF;" parent="1" vertex="1">
          <mxGeometry x="150" y="480" width="120" height="60" as="geometry" />
        </mxCell>
        <mxCell id="4mgcw4wNBVeQnwsBd0YR-39" value="" style="endArrow=classic;html=1;exitX=0.5;exitY=0;exitDx=0;exitDy=0;" parent="1" source="4mgcw4wNBVeQnwsBd0YR-38" target="4mgcw4wNBVeQnwsBd0YR-13" edge="1">
          <mxGeometry width="50" height="50" relative="1" as="geometry">
            <mxPoint x="180" y="450" as="sourcePoint" />
            <mxPoint x="230" y="400" as="targetPoint" />
          </mxGeometry>
        </mxCell>
        <mxCell id="4mgcw4wNBVeQnwsBd0YR-40" value="Switch_Screen(F2)" style="text;html=1;strokeColor=none;fillColor=none;align=center;verticalAlign=middle;whiteSpace=wrap;rounded=0;" parent="1" vertex="1">
          <mxGeometry x="125" y="390" width="40" height="20" as="geometry" />
        </mxCell>
        <mxCell id="VgTxOxRYpTm4GnC4EMny-2" value="&lt;span&gt;Menu()&lt;/span&gt;" style="text;html=1;align=center;verticalAlign=middle;resizable=0;points=[];autosize=1;" parent="1" vertex="1">
          <mxGeometry x="425" y="210" width="50" height="20" as="geometry" />
        </mxCell>
        <mxCell id="mxw0-0rjddaAhERH-4oH-4" style="edgeStyle=orthogonalEdgeStyle;rounded=0;orthogonalLoop=1;jettySize=auto;html=1;entryX=0.5;entryY=1;entryDx=0;entryDy=0;exitX=0.5;exitY=1;exitDx=0;exitDy=0;" edge="1" parent="1" source="mxw0-0rjddaAhERH-4oH-2" target="4mgcw4wNBVeQnwsBd0YR-38">
          <mxGeometry relative="1" as="geometry" />
        </mxCell>
        <mxCell id="mxw0-0rjddaAhERH-4oH-13" style="edgeStyle=orthogonalEdgeStyle;rounded=0;orthogonalLoop=1;jettySize=auto;html=1;entryX=1;entryY=0.5;entryDx=0;entryDy=0;" edge="1" parent="1" source="mxw0-0rjddaAhERH-4oH-2" target="mxw0-0rjddaAhERH-4oH-11">
          <mxGeometry relative="1" as="geometry" />
        </mxCell>
        <mxCell id="mxw0-0rjddaAhERH-4oH-2" value="User_Score &amp;gt; Least HIgh_Score ?" style="rhombus;whiteSpace=wrap;html=1;fillColor=#d5e8d4;strokeColor=#82b366;" vertex="1" parent="1">
          <mxGeometry x="650" y="565" width="140" height="105" as="geometry" />
        </mxCell>
        <mxCell id="mxw0-0rjddaAhERH-4oH-5" value="Yes&lt;br&gt;" style="text;html=1;align=center;verticalAlign=middle;resizable=0;points=[];autosize=1;strokeColor=none;" vertex="1" parent="1">
          <mxGeometry x="425" y="670" width="40" height="20" as="geometry" />
        </mxCell>
        <mxCell id="mxw0-0rjddaAhERH-4oH-6" value="No" style="text;html=1;align=center;verticalAlign=middle;resizable=0;points=[];autosize=1;strokeColor=none;" vertex="1" parent="1">
          <mxGeometry x="610" y="630" width="30" height="20" as="geometry" />
        </mxCell>
        <mxCell id="mxw0-0rjddaAhERH-4oH-12" style="edgeStyle=orthogonalEdgeStyle;rounded=0;orthogonalLoop=1;jettySize=auto;html=1;entryX=1;entryY=0.5;entryDx=0;entryDy=0;" edge="1" parent="1" source="mxw0-0rjddaAhERH-4oH-11" target="4mgcw4wNBVeQnwsBd0YR-17">
          <mxGeometry relative="1" as="geometry" />
        </mxCell>
        <mxCell id="mxw0-0rjddaAhERH-4oH-11" value="Show high scores&lt;br&gt;" style="whiteSpace=wrap;html=1;fillColor=#66B2FF;strokeWidth=1;" vertex="1" parent="1">
          <mxGeometry x="500" y="570" width="80" height="30" as="geometry" />
        </mxCell>
      </root>
    </mxGraphModel>
  </diagram>
</mxfile>
